<?xml version="1.0" encoding="UTF-8"?><svg id="element_projets" xmlns="http://www.w3.org/2000/svg" xmlns:xlink="http://www.w3.org/1999/xlink" viewBox="0 0 1789 823"><defs><style>.cls-1{opacity:.22;}.cls-1,.cls-2,.cls-3{fill:#0983b2;}.cls-1,.cls-2,.cls-3,.cls-4,.cls-5{stroke-width:0px;}.cls-6{filter:url(#luminosity-invert);}.cls-2{opacity:.25;}.cls-3{opacity:.5;}.cls-4{fill:url(#Dégradé_sans_nom_5);}.cls-7{mask:url(#mask);}.cls-8{fill:none;stroke:#08756d;stroke-miterlimit:10;stroke-width:1px;}.cls-5{fill:url(#Dégradé_sans_nom_20);opacity:.39;}</style><radialGradient id="Dégradé_sans_nom_20" cx="-439.21" cy="1236.35" fx="-439.21" fy="1236.35" r="1277.35" gradientTransform="translate(1320.87 -162.91) scale(1 .46)" gradientUnits="userSpaceOnUse"><stop offset=".41" stop-color="#1c6684"/><stop offset=".5" stop-color="#1b627f" stop-opacity=".97"/><stop offset=".61" stop-color="#185771" stop-opacity=".86"/><stop offset=".72" stop-color="#13465b" stop-opacity=".69"/><stop offset=".83" stop-color="#0c2e3b" stop-opacity=".45"/><stop offset=".95" stop-color="#040f13" stop-opacity=".15"/><stop offset="1" stop-color="#000" stop-opacity="0"/></radialGradient><filter id="luminosity-invert" x="-128.12" y="-27.48" width="2005.97" height="888.45" color-interpolation-filters="sRGB" filterUnits="userSpaceOnUse"><feColorMatrix result="cm" values="-1 0 0 0 1 0 -1 0 0 1 0 0 -1 0 1 0 0 0 1 0"/></filter><radialGradient id="Dégradé_sans_nom_5" cx="-293.65" cy="1575.77" fx="-293.65" fy="1575.77" r="635.56" gradientTransform="translate(1324.21 -578.77) rotate(-.08) scale(1.55 .63) skewX(.13)" gradientUnits="userSpaceOnUse"><stop offset="0" stop-color="#000"/><stop offset=".37" stop-color="#010101"/><stop offset=".51" stop-color="#080808"/><stop offset=".6" stop-color="#141414"/><stop offset=".68" stop-color="#252525"/><stop offset=".75" stop-color="#3b3b3b"/><stop offset=".8" stop-color="#565656"/><stop offset=".86" stop-color="#777"/><stop offset=".91" stop-color="#9c9c9c"/><stop offset=".95" stop-color="#c7c7c7"/><stop offset=".99" stop-color="#f5f5f5"/><stop offset="1" stop-color="#fff"/></radialGradient><mask id="mask" x="-128.12" y="-27.48" width="2005.97" height="888.45" maskUnits="userSpaceOnUse"><g class="cls-6"><rect class="cls-4" x="-128.12" y="-27.48" width="2005.97" height="888.45"/></g></mask></defs><polygon class="cls-5" points="1567.85 0 469.64 0 416.81 59.92 0 59.92 0 659.05 199.21 823 1716.78 823 1763.52 783.18 1763.52 157.48 1567.85 0"/><polygon class="cls-3" points="0 684.07 0 823 165.91 823 0 684.07"/><polygon class="cls-2" points="1597.81 5.24 1763.52 5.24 1763.52 111.91 1662.36 27.2 1627.1 27.2 1597.81 5.24"/><polygon class="cls-2" points="1619.07 41.11 1657.02 41.11 1789 145.62 1789 385.47 1763.84 401.54 1763.84 157.12 1619.07 41.11"/><polygon class="cls-1" points="0 318.51 0 59.51 208.65 59.51 168.38 79.03 18.3 79.03 18.3 309.32 0 318.51"/><g class="cls-7"><line class="cls-8" x1="220.81" y1="5.24" x2="220.81" y2="823"/><line class="cls-8" x1="411.57" y1="5.24" x2="411.57" y2="823"/><line class="cls-8" x1="602.33" y1="5.24" x2="602.33" y2="823"/><line class="cls-8" x1="793.09" y1="5.24" x2="793.09" y2="823"/><line class="cls-8" x1="983.85" y1="5.24" x2="983.85" y2="823"/><line class="cls-8" x1="1174.61" y1="5.24" x2="1174.61" y2="823"/><line class="cls-8" x1="1365.37" y1="5.24" x2="1365.37" y2="823"/><line class="cls-8" x1="1556.13" y1="5.24" x2="1556.13" y2="823"/><line class="cls-8" x1="97.81" y1="734.88" x2="1746.89" y2="734.88"/><line class="cls-8" x1="13.33" y1="577.88" x2="1746.89" y2="577.88"/><line class="cls-8" x1="13.33" y1="420.88" x2="1746.89" y2="420.88"/><line class="cls-8" x1="13.33" y1="263.88" x2="1746.89" y2="263.88"/><line class="cls-8" x1="13.33" y1="106.88" x2="1746.89" y2="106.88"/></g></svg>