<?xml version="1.0" encoding="UTF-8"?><svg id="element_projets" xmlns="http://www.w3.org/2000/svg" xmlns:xlink="http://www.w3.org/1999/xlink" viewBox="0 0 823 1789"><defs><style>.cls-1{fill:none;stroke:#08756d;stroke-miterlimit:10;stroke-width:.97px;}.cls-2{opacity:.22;}.cls-2,.cls-3,.cls-4{fill:#0983b2;}.cls-2,.cls-3,.cls-4,.cls-5,.cls-6{stroke-width:0px;}.cls-7{filter:url(#luminosity-invert);}.cls-3{opacity:.25;}.cls-4{opacity:.5;}.cls-5{fill:url(#Dégradé_sans_nom_5);}.cls-8{mask:url(#mask);}.cls-6{fill:url(#Dégradé_sans_nom_20);opacity:.39;}</style><radialGradient id="Dégradé_sans_nom_20" cx="-293.05" cy="999.72" fx="-293.05" fy="999.72" r="1281.96" gradientTransform="translate(852.03 1190.1) rotate(90) scale(1.01 .45)" gradientUnits="userSpaceOnUse"><stop offset=".41" stop-color="#1c6684"/><stop offset=".5" stop-color="#1b627f" stop-opacity=".97"/><stop offset=".61" stop-color="#185771" stop-opacity=".86"/><stop offset=".72" stop-color="#13465b" stop-opacity=".69"/><stop offset=".83" stop-color="#0c2e3b" stop-opacity=".45"/><stop offset=".95" stop-color="#040f13" stop-opacity=".15"/><stop offset="1" stop-color="#000" stop-opacity="0"/></radialGradient><filter id="luminosity-invert" x="-34.46" y="-43.52" width="866.17" height="1929.51" color-interpolation-filters="sRGB" filterUnits="userSpaceOnUse"><feColorMatrix result="cm" values="-1 0 0 0 1 0 -1 0 0 1 0 0 -1 0 1 0 0 0 1 0"/></filter><radialGradient id="Dégradé_sans_nom_5" cx="836.53" cy="1610.41" fx="836.53" fy="1610.41" r="635.56" gradientTransform="translate(-858.34 -68.15) rotate(-.08) scale(1.49 .62) skewX(.13)" gradientUnits="userSpaceOnUse"><stop offset="0" stop-color="#000"/><stop offset=".37" stop-color="#010101"/><stop offset=".51" stop-color="#080808"/><stop offset=".6" stop-color="#141414"/><stop offset=".68" stop-color="#252525"/><stop offset=".75" stop-color="#3b3b3b"/><stop offset=".8" stop-color="#565656"/><stop offset=".86" stop-color="#777"/><stop offset=".91" stop-color="#9c9c9c"/><stop offset=".95" stop-color="#c7c7c7"/><stop offset=".99" stop-color="#f5f5f5"/><stop offset="1" stop-color="#fff"/></radialGradient><mask id="mask" x="-34.46" y="-43.52" width="866.17" height="1929.51" maskUnits="userSpaceOnUse"><g class="cls-7"><rect class="cls-5" x="-566.13" y="488.15" width="1929.51" height="866.17" transform="translate(1319.87 522.61) rotate(90)"/></g></mask></defs><polygon class="cls-6" points="607.52 0 458.18 0 406.63 60.41 0 60.41 0 1623.69 194.34 1789 752.81 1789 798.41 1748.85 798.41 158.78 607.52 0"/><polygon class="cls-4" points="0 1653.02 0 1789 157.13 1789 0 1653.02"/><polygon class="cls-3" points="637.46 5.13 799.12 5.13 799.12 112.68 700.43 27.28 666.03 27.28 637.46 5.13"/><polygon class="cls-3" points="657.21 41.3 694.24 41.3 823 150.71 823 387.5 798.45 404.7 798.45 158.26 657.21 41.3"/><polygon class="cls-2" points="0 323.08 0 61.93 203.56 61.93 164.27 81.61 17.86 81.61 17.86 313.81 0 323.08"/><g class="cls-8"><line class="cls-1" x1="799.81" y1="292.11" x2="2.56" y2="292.11"/><line class="cls-1" x1="799.81" y1="475.6" x2="2.56" y2="475.6"/><line class="cls-1" x1="799.81" y1="659.09" x2="2.56" y2="659.09"/><line class="cls-1" x1="799.81" y1="842.58" x2="2.56" y2="842.58"/><line class="cls-1" x1="799.81" y1="1026.07" x2="2.56" y2="1026.07"/><line class="cls-1" x1="799.81" y1="1209.56" x2="2.56" y2="1209.56"/><line class="cls-1" x1="799.81" y1="1393.05" x2="2.56" y2="1393.05"/><line class="cls-1" x1="799.81" y1="1576.53" x2="2.56" y2="1576.53"/><line class="cls-1" x1="88.46" y1="173.8" x2="88.46" y2="1760.02"/><line class="cls-1" x1="241.53" y1="92.53" x2="241.53" y2="1760.02"/><line class="cls-1" x1="394.59" y1="92.53" x2="394.59" y2="1760.02"/><line class="cls-1" x1="547.66" y1="92.53" x2="547.66" y2="1760.02"/><line class="cls-1" x1="700.73" y1="92.53" x2="700.72" y2="1760.02"/></g></svg>