<?xml version="1.0" encoding="UTF-8"?>
<svg id="element_projets" data-name="element projets" xmlns="http://www.w3.org/2000/svg" xmlns:xlink="http://www.w3.org/1999/xlink" viewBox="0 0 1920 1080">
  <defs>
    <style>
      .cls-1 {
        opacity: .22;
      }

      .cls-1, .cls-2, .cls-3 {
        fill: #0983b2;
      }

      .cls-1, .cls-2, .cls-3, .cls-4, .cls-5 {
        stroke-width: 0px;
      }

      .cls-6 {
        fill: none;
        stroke: #08756d;
        stroke-miterlimit: 10;
      }

      .cls-7 {
        filter: url(#luminosity-invert);
      }

      .cls-2 {
        opacity: .25;
      }

      .cls-3 {
        opacity: .5;
      }

      .cls-4 {
        fill: url(#Dégradé_sans_nom_5);
      }

      .cls-8 {
        mask: url(#mask);
      }

      .cls-5 {
        fill: url(#Dégradé_sans_nom_20);
        opacity: .39;
      }
    </style>
    <radialGradient id="Dégradé_sans_nom_20" data-name="Dégradé sans nom 20" cx="947.26" cy="540" fx="947.26" fy="540" r="1277.35" gradientTransform="translate(0 289.22) scale(1 .46)" gradientUnits="userSpaceOnUse">
      <stop offset=".41" stop-color="#1c6684"/>
      <stop offset=".5" stop-color="#1b627f" stop-opacity=".97"/>
      <stop offset=".61" stop-color="#185771" stop-opacity=".86"/>
      <stop offset=".72" stop-color="#13465b" stop-opacity=".69"/>
      <stop offset=".83" stop-color="#0c2e3b" stop-opacity=".45"/>
      <stop offset=".95" stop-color="#040f13" stop-opacity=".15"/>
      <stop offset="1" stop-color="#000" stop-opacity="0"/>
    </radialGradient>
    <filter id="luminosity-invert" x="-62.86" y="47.12" width="2006.45" height="996.25" color-interpolation-filters="sRGB" filterUnits="userSpaceOnUse">
      <feColorMatrix result="cm" values="-1 0 0 0 1 0 -1 0 0 1 0 0 -1 0 1 0 0 0 1 0"/>
    </filter>
    <radialGradient id="Dégradé_sans_nom_5" data-name="Dégradé sans nom 5" cx="1013.46" cy="542.4" fx="1013.46" fy="542.4" r="635.56" gradientTransform="translate(-637.01 163.81) rotate(-.09) scale(1.55 .71) skewX(.12)" gradientUnits="userSpaceOnUse">
      <stop offset="0" stop-color="#000"/>
      <stop offset=".37" stop-color="#010101"/>
      <stop offset=".51" stop-color="#080808"/>
      <stop offset=".6" stop-color="#141414"/>
      <stop offset=".68" stop-color="#252525"/>
      <stop offset=".75" stop-color="#3b3b3b"/>
      <stop offset=".8" stop-color="#565656"/>
      <stop offset=".86" stop-color="#777"/>
      <stop offset=".91" stop-color="#9c9c9c"/>
      <stop offset=".95" stop-color="#c7c7c7"/>
      <stop offset=".99" stop-color="#f5f5f5"/>
      <stop offset="1" stop-color="#fff"/>
    </radialGradient>
    <mask id="mask" x="-62.86" y="47.12" width="2006.45" height="996.25" maskUnits="userSpaceOnUse">
      <g class="cls-7">
        <rect class="cls-4" x="-62.86" y="47.12" width="2006.45" height="996.25"/>
      </g>
    </mask>
  </defs>
  <polygon class="cls-5" points="1633.51 128.68 535.04 128.68 482.19 188.57 65.29 188.57 65.29 787.44 264.54 951.32 1782.48 951.32 1829.22 911.52 1829.22 286.09 1633.51 128.68"/>
  <polygon class="cls-3" points="65.29 812.45 65.29 947.26 226.39 947.26 65.29 812.45"/>
  <polygon class="cls-2" points="1663.48 133.92 1829.22 133.92 1829.22 240.54 1728.05 155.87 1692.77 155.87 1663.48 133.92"/>
  <polygon class="cls-2" points="1684.74 169.77 1722.7 169.77 1854.71 274.24 1854.71 513.98 1829.55 530.04 1829.55 285.73 1684.74 169.77"/>
  <polygon class="cls-1" points="65.29 447.06 65.29 188.16 273.99 188.16 233.71 207.67 83.59 207.67 83.59 437.86 65.29 447.06"/>
  <g class="cls-8">
    <g>
      <g>
        <line class="cls-6" x1="286.15" y1="133.92" x2="286.15" y2="951.32"/>
        <line class="cls-6" x1="476.96" y1="133.92" x2="476.96" y2="951.32"/>
        <line class="cls-6" x1="667.76" y1="133.92" x2="667.76" y2="951.32"/>
        <line class="cls-6" x1="858.57" y1="133.92" x2="858.57" y2="951.32"/>
        <line class="cls-6" x1="1049.37" y1="133.92" x2="1049.37" y2="951.32"/>
        <line class="cls-6" x1="1240.18" y1="133.92" x2="1240.18" y2="951.32"/>
        <line class="cls-6" x1="1430.98" y1="133.92" x2="1430.98" y2="951.32"/>
        <line class="cls-6" x1="1621.79" y1="133.92" x2="1621.79" y2="951.32"/>
      </g>
      <g>
        <line class="cls-6" x1="163.12" y1="863.24" x2="1812.59" y2="863.24"/>
        <line class="cls-6" x1="78.62" y1="706.31" x2="1812.59" y2="706.31"/>
        <line class="cls-6" x1="78.62" y1="549.38" x2="1812.59" y2="549.38"/>
        <line class="cls-6" x1="78.62" y1="392.44" x2="1812.59" y2="392.44"/>
        <line class="cls-6" x1="78.62" y1="235.51" x2="1812.59" y2="235.51"/>
      </g>
    </g>
  </g>
</svg>