<?xml version="1.0" encoding="UTF-8"?><svg id="element_projets" xmlns="http://www.w3.org/2000/svg" xmlns:xlink="http://www.w3.org/1999/xlink" viewBox="0 0 1080 1920"><defs><style>.cls-1{opacity:.22;}.cls-1,.cls-2,.cls-3{fill:#0983b2;}.cls-1,.cls-2,.cls-3,.cls-4,.cls-5{stroke-width:0px;}.cls-6{filter:url(#luminosity-invert);}.cls-2{opacity:.25;}.cls-3{opacity:.5;}.cls-4{fill:url(#Dégradé_sans_nom_5);}.cls-7{mask:url(#mask);}.cls-5{fill:url(#Dégradé_sans_nom_20);opacity:.39;}.cls-8{fill:none;stroke:#08756d;stroke-miterlimit:10;stroke-width:.98px;}</style><radialGradient id="Dégradé_sans_nom_20" cx="-154.05" cy="1050.54" fx="-154.05" fy="1050.54" r="1281.96" gradientTransform="translate(1025.77 1099.37) rotate(90) scale(1 .46)" gradientUnits="userSpaceOnUse"><stop offset=".41" stop-color="#1c6684"/><stop offset=".5" stop-color="#1b627f" stop-opacity=".97"/><stop offset=".61" stop-color="#185771" stop-opacity=".86"/><stop offset=".72" stop-color="#13465b" stop-opacity=".69"/><stop offset=".83" stop-color="#0c2e3b" stop-opacity=".45"/><stop offset=".95" stop-color="#040f13" stop-opacity=".15"/><stop offset="1" stop-color="#000" stop-opacity="0"/></radialGradient><filter id="luminosity-invert" x="93.28" y="15.39" width="888.05" height="1912.87" color-interpolation-filters="sRGB" filterUnits="userSpaceOnUse"><feColorMatrix result="cm" values="-1 0 0 0 1 0 -1 0 0 1 0 0 -1 0 1 0 0 0 1 0"/></filter><radialGradient id="Dégradé_sans_nom_5" cx="870.83" cy="1414.63" fx="870.83" fy="1414.63" r="635.56" gradientTransform="translate(-758.83 81.07) rotate(-.09) scale(1.48 .63) skewX(.12)" gradientUnits="userSpaceOnUse"><stop offset="0" stop-color="#000"/><stop offset=".37" stop-color="#010101"/><stop offset=".51" stop-color="#080808"/><stop offset=".6" stop-color="#141414"/><stop offset=".68" stop-color="#252525"/><stop offset=".75" stop-color="#3b3b3b"/><stop offset=".8" stop-color="#565656"/><stop offset=".86" stop-color="#777"/><stop offset=".91" stop-color="#9c9c9c"/><stop offset=".95" stop-color="#c7c7c7"/><stop offset=".99" stop-color="#f5f5f5"/><stop offset="1" stop-color="#fff"/></radialGradient><mask id="mask" x="93.28" y="15.39" width="888.05" height="1912.87" maskUnits="userSpaceOnUse"><g class="cls-6"><rect class="cls-4" x="-419.13" y="527.8" width="1912.87" height="888.05" transform="translate(1509.14 434.53) rotate(90)"/></g></mask></defs><polygon class="cls-5" points="751.47 58.54 598.36 58.54 545.51 118.43 128.61 118.43 128.61 1668.23 327.86 1832.11 900.44 1832.11 947.19 1792.31 947.19 215.95 751.47 58.54"/><polygon class="cls-3" points="128.61 1697.3 128.61 1832.11 289.71 1832.11 128.61 1697.3"/><polygon class="cls-2" points="782.17 63.63 947.91 63.63 947.91 170.24 846.73 85.58 811.46 85.58 782.17 63.63"/><polygon class="cls-2" points="803.42 99.48 841.38 99.48 973.4 208.95 973.4 443.69 948.23 459.75 948.23 215.44 803.42 99.48"/><polygon class="cls-1" points="128.61 378.83 128.61 119.94 337.3 119.94 297.03 139.45 146.91 139.45 146.91 369.64 128.61 378.83"/><g class="cls-7"><line class="cls-8" x1="948.62" y1="348.13" x2="131.23" y2="348.13"/><line class="cls-8" x1="948.62" y1="530.04" x2="131.23" y2="530.04"/><line class="cls-8" x1="948.62" y1="711.95" x2="131.23" y2="711.95"/><line class="cls-8" x1="948.62" y1="893.85" x2="131.23" y2="893.85"/><line class="cls-8" x1="948.62" y1="1075.76" x2="131.23" y2="1075.76"/><line class="cls-8" x1="948.62" y1="1257.66" x2="131.23" y2="1257.66"/><line class="cls-8" x1="948.62" y1="1439.57" x2="131.23" y2="1439.57"/><line class="cls-8" x1="948.62" y1="1621.48" x2="131.23" y2="1621.48"/><line class="cls-8" x1="219.3" y1="230.84" x2="219.3" y2="1803.38"/><line class="cls-8" x1="376.24" y1="150.27" x2="376.23" y2="1803.38"/><line class="cls-8" x1="533.17" y1="150.27" x2="533.17" y2="1803.38"/><line class="cls-8" x1="690.1" y1="150.27" x2="690.1" y2="1803.38"/><line class="cls-8" x1="847.03" y1="150.27" x2="847.03" y2="1803.38"/></g></svg>