<?xml version="1.0" encoding="UTF-8"?><svg id="Calque_1" xmlns="http://www.w3.org/2000/svg" xmlns:xlink="http://www.w3.org/1999/xlink" viewBox="0 0 500 400"><defs><style>.cls-1{fill:url(#Dégradé_sans_nom_11-2);}.cls-1,.cls-2,.cls-3{stroke-width:0px;}.cls-2{fill:#fff;}.cls-3{fill:url(#Dégradé_sans_nom_11);}</style><linearGradient id="Dégradé_sans_nom_11" x1="266.94" y1="329.22" x2="453.24" y2="210.85" gradientUnits="userSpaceOnUse"><stop offset="0" stop-color="#007fa3"/><stop offset="1" stop-color="#019966"/></linearGradient><linearGradient id="Dégradé_sans_nom_11-2" x1="48.62" y1="192.5" x2="239.9" y2="70.96" xlink:href="#Dégradé_sans_nom_11"/></defs><path class="cls-3" d="m452.26,220.59l-9.61-26.21c-.83-2.26-3.25-3.51-5.59-2.89l-17.78,4.74c-6.02-9.45-13.58-17.59-22.23-24.19l6.33-17.6c.82-2.27-.24-4.78-2.43-5.79l-3.97-1.83c.13,1.83.21,3.68.21,5.56,0,14.63-3.84,27.89-11.44,39.56,6.76,5.4,12.5,11.92,17.15,19.51,6.99,11.58,10.54,24.35,10.54,37.95,0,20.13-7.27,37.55-21.59,51.78-14.22,14.33-31.69,21.59-51.93,21.59h-58.75l-5.85,16.27c-.82,2.27.24,4.78,2.43,5.79l25.42,11.7c2.19,1.01,4.8.18,6.02-1.9l8.66-14.86c11.11,2.49,22.77,3.02,34.43,1.32l7.44,15.68c1.03,2.17,3.56,3.2,5.83,2.37l26.34-9.66c2.27-.83,3.54-3.25,2.92-5.58l-4.51-16.98c9.84-6.3,18.26-14.25,25-23.33l16.83,5.96c2.28.81,4.8-.25,5.82-2.44l11.83-25.36c1.02-2.19.2-4.78-1.89-5.99l-15.85-9.13c2.24-10.48,2.71-21.41,1.22-32.35l16.63-7.88c2.19-1.04,3.23-3.56,2.4-5.82Z"/><path class="cls-2" d="m323.81,89.87h-76.75c-3.92,0-7.22,1.39-9.9,4.18-2.79,2.79-4.18,6.09-4.18,9.9v193.89c0,3.92,1.39,7.22,4.18,9.9,2.68,2.79,5.98,4.18,9.9,4.18h92.84c17.33,0,32.08-6.14,44.25-18.41,12.28-12.17,18.42-26.87,18.42-44.1,0-11.66-2.99-22.44-8.97-32.34-5.88-9.59-13.72-17.12-23.52-22.59,10.83-11.86,16.25-25.89,16.25-42.09,0-17.23-6.09-31.93-18.26-44.1-12.28-12.27-27.03-18.41-44.26-18.41Zm-62.51,28.32h62.51c9.49,0,17.59,3.35,24.29,10.06,6.71,6.71,10.06,14.75,10.06,24.14s-3.35,17.59-10.06,24.29c-6.71,6.71-14.8,10.06-24.29,10.06h-62.51v-68.55Zm112.96,131.22c0,9.39-3.35,17.43-10.06,24.14-6.71,6.71-14.8,10.06-24.29,10.06h-78.61v-68.55h78.61c9.49,0,17.59,3.35,24.29,10.06,6.71,6.71,10.06,14.8,10.06,24.29Z"/><path class="cls-2" d="m172.06,206.39c-12.17,0-22.59-4.28-31.26-12.84-8.56-8.67-12.84-19.08-12.84-31.26s4.28-22.59,12.84-31.26c8.66-8.56,19.09-12.84,31.26-12.84h50.07v-14.23c0-5.16,1.53-9.95,4.44-14.08h-54.5c-20.01,0-37.08,7.07-51.22,21.2-14.13,14.24-21.2,31.31-21.2,51.22,0,16.51,5.06,31.26,15.16,44.25,9.9,12.79,22.59,21.3,38.07,25.53l-51.68,56.17c-2.68,2.89-3.97,6.24-3.87,10.06.21,3.92,1.76,7.22,4.64,9.9,2.68,2.48,5.88,3.71,9.59,3.71,4.13,0,7.58-1.49,10.37-4.49l67-72.73h33.2v-28.32h-50.07Z"/><path class="cls-1" d="m96.13,246.75l13.01-11c5.43,3.57,11.25,6.56,17.38,8.93l7.58-8.24c-10.79-5.47-20.13-13.25-27.86-23.24-11.58-14.89-17.45-32.02-17.45-50.92,0-22.78,8.19-42.59,24.38-58.9,16.18-16.18,35.99-24.38,58.89-24.38h72.96l-14.08-14.31c-1.68-1.71-4.36-1.83-6.19-.29l-13.99,11.83c-9.15-6.04-19.4-10.5-30.39-12.99l-1.66-18.44c-.22-2.4-2.2-4.24-4.58-4.24h-27.56c-2.38,0-4.36,1.84-4.58,4.24l-1.64,18.22c-11.1,2.4-21.47,6.79-30.74,12.8l-13.5-11.41c-1.83-1.54-4.51-1.42-6.19.29l-19.48,19.79c-1.68,1.71-1.8,4.43-.28,6.29l11.16,13.62c-6,9.42-10.41,20-12.82,31.32l-16.87,1.57c-2.37.22-4.18,2.24-4.18,4.65v27.99c0,2.41,1.81,4.43,4.18,4.65l16.87,1.57c2.38,11.16,6.69,21.59,12.56,30.92l-10.9,13.3c-1.52,1.86-1.4,4.58.28,6.29l19.48,19.79c1.68,1.71,4.36,1.83,6.19.29Z"/></svg>